HIERARCHY
ROOT Hips
{
    OFFSET 0.000000 0.000000 0.000000
    CHANNELS 6 Xposition Yposition Zposition Zrotation Xrotation Yrotation
    JOINT Spine
    {
        OFFSET -0.000000 14.517291 0.000000
        CHANNELS 3 Zrotation Xrotation Yrotation
        JOINT Spine1
        {
            OFFSET -0.000000 37.558300 0.000000
            CHANNELS 3 Zrotation Xrotation Yrotation
            JOINT Neck
            {
                OFFSET -0.000000 37.404057 3.400369
                CHANNELS 3 Zrotation Xrotation Yrotation
                JOINT Head
                {
                    OFFSET -0.000000 24.785618 -3.540803
                    CHANNELS 3 Zrotation Xrotation Yrotation
                    End Site
                    {
                        OFFSET -0.000000 35.408028 0.000000
                    }
                }
            }
            JOINT LeftShoulder
            {
                OFFSET 6.992933 33.973492 -0.192664
                CHANNELS 3 Zrotation Xrotation Yrotation
                JOINT LeftArm
                {
                    OFFSET 21.527611 0.000000 0.000000
                    CHANNELS 3 Zrotation Xrotation Yrotation
                    JOINT LeftForeArm
                    {
                        OFFSET 56.353916 0.000000 0.000000
                        CHANNELS 3 Zrotation Xrotation Yrotation
                        JOINT LeftHand
                        {
                            OFFSET 47.774071 0.000000 0.000000
                            CHANNELS 3 Zrotation Xrotation Yrotation
                            End Site
                            {
                                OFFSET 26.556021 0.000000 0.000000
                            }
                        }
                    }
                }
            }
            JOINT RightShoulder
            {
                OFFSET -7.065357 33.973492 -0.192664
                CHANNELS 3 Zrotation Xrotation Yrotation
                JOINT RightArm
                {
                    OFFSET -21.527611 0.000000 0.000000
                    CHANNELS 3 Zrotation Xrotation Yrotation
                    JOINT RightForeArm
                    {
                        OFFSET -56.353916 0.000000 0.000000
                        CHANNELS 3 Zrotation Xrotation Yrotation
                        JOINT RightHand
                        {
                            OFFSET -47.774071 0.000000 0.000000
                            CHANNELS 3 Zrotation Xrotation Yrotation
                            End Site
                            {
                                OFFSET -26.556021 0.000000 0.000000
                            }
                        }
                    }
                }
            }
        }
    }
    JOINT LeftUpLeg
    {
        OFFSET 17.704014 0.000000 0.000000
        CHANNELS 3 Zrotation Xrotation Yrotation
        JOINT LeftLeg
        {
            OFFSET -0.000000 -81.181816 0.000000
            CHANNELS 3 Zrotation Xrotation Yrotation
            JOINT LeftFoot
            {
                OFFSET -0.000000 -62.821102 0.000000
                CHANNELS 3 Zrotation Xrotation Yrotation
                JOINT LeftToeBase
                {
                    OFFSET -0.000000 -11.507608 26.556021
                    CHANNELS 3 Zrotation Xrotation Yrotation
                    End Site
                    {
                        OFFSET -0.000000 0.000000 7.081605
                    }
                }
            }
        }
    }
    JOINT RightUpLeg
    {
        OFFSET -17.704014 0.000000 0.000000
        CHANNELS 3 Zrotation Xrotation Yrotation
        JOINT RightLeg
        {
            OFFSET -0.000000 -81.181816 0.000000
            CHANNELS 3 Zrotation Xrotation Yrotation
            JOINT RightFoot
            {
                OFFSET -0.000000 -62.821102 0.000000
                CHANNELS 3 Zrotation Xrotation Yrotation
                JOINT RightToeBase
                {
                    OFFSET -0.000000 -11.507608 26.556021
                    CHANNELS 3 Zrotation Xrotation Yrotation
                    End Site
                    {
                        OFFSET -0.000000 0.000000 7.081605
                    }
                }
            }
        }
    }
}
MOTION
Frames:    5
Frame Time:    0.008333
18.122509    154.891312    -108.707932    -0.196280    -9.119228    43.843281    -3.543330    0.859633    -4.801283    -4.161047    6.664157    -1.367692    5.346343    3.196455    -17.294779    16.923220    1.484318    -16.537638    13.210782    2.908877    -24.365080    -13.813208    11.880199    -73.517792    -22.638214    3.325163    -107.720070    -12.001847    -25.848301    -20.084782    1.066449    3.869664    -5.151450    30.616955    -12.027273    50.955940    -25.308598    -14.299222    64.825508    -12.658078    -2.313645    37.464458    18.965982    -4.505805    -0.927652    -15.986444    40.093960    -16.529123    8.429445    -28.016472    43.341171    0.000000    0.000000    0.000000    -18.314657    -14.318460    -14.328482    13.491002    31.158005    -15.576376    12.713001    5.204906    -19.659933    0.000000    0.000000    0.000000    
18.124094    154.888947    -108.711601    -0.191632    -9.123569    43.826466    -3.549740    0.858997    -4.810628    -4.153156    6.674504    -1.370903    5.339433    3.199854    -17.291548    16.930937    1.479549    -16.531544    13.201992    2.922264    -24.355078    -13.793619    11.875903    -73.533203    -22.632082    3.300185    -107.723984    -12.090121    -25.845280    -20.136545    1.056431    3.897107    -5.151360    30.639944    -12.033594    50.987518    -25.308592    -14.298782    64.810890    -12.657182    -2.317736    37.465103    18.964994    -4.545704    -0.897297    -15.990250    40.096977    -16.533386    8.400727    -27.939995    43.373024    0.000000    0.000000    0.000000    -18.316690    -14.316921    -14.322893    13.496220    31.154415    -15.568712    12.719561    5.207630    -19.660061    0.000000    0.000000    0.000000    
18.126076    154.886932    -108.716202    -0.187499    -9.123417    43.812363    -3.564631    0.858777    -4.814566    -4.139963    6.679684    -1.372838    5.323202    3.201724    -17.289907    16.959106    1.481115    -16.524429    13.201532    2.927988    -24.359808    -13.796273    11.878528    -73.544823    -22.618856    3.274883    -107.720238    -12.178161    -25.830540    -20.161894    1.061392    3.892609    -5.149403    30.610113    -11.990435    50.972744    -25.347795    -14.330299    64.785553    -12.658461    -2.331668    37.461033    18.967695    -4.483393    -0.864742    -15.970043    40.104855    -16.568722    8.439957    -28.027174    43.340343    0.000000    0.000000    0.000000    -18.321262    -14.316115    -14.338859    13.498004    31.150328    -15.587645    12.697968    5.213213    -19.631289    0.000000    0.000000    0.000000    
18.127918    154.887878    -108.718964    -0.188210    -9.125897    43.797733    -3.571006    0.853589    -4.827394    -4.130503    6.686381    -1.377385    5.330968    3.206921    -17.285494    16.942982    1.474746    -16.521576    13.190381    2.934726    -24.348042    -13.809046    11.881509    -73.552551    -22.610134    3.260728    -107.707260    -12.246873    -25.808561    -20.203968    1.056985    3.895165    -5.133984    30.628780    -11.998058    50.971329    -25.324511    -14.310157    64.801468    -12.663038    -2.323380    37.461933    18.973612    -4.475424    -0.850486    -15.983044    40.103146    -16.541904    8.435427    -28.024105    43.321320    0.000000    0.000000    0.000000    -18.314243    -14.319652    -14.346636    13.478166    31.149654    -15.560097    12.688025    5.222911    -19.630062    0.000000    0.000000    0.000000    
18.126196    154.886765    -108.722176    -0.191982    -9.127244    43.779778    -3.578215    0.847375    -4.834491    -4.115317    6.695342    -1.380272    5.316878    3.195538    -17.275171    16.951279    1.486189    -16.510187    13.183436    2.947249    -24.327478    -13.793572    11.912271    -73.580322    -22.554476    3.152815    -107.716118    -12.345553    -25.814278    -20.236897    1.054647    3.903951    -5.130961    30.634914    -11.997089    50.982693    -25.315826    -14.313070    64.805748    -12.631575    -2.318755    37.451447    18.981689    -4.469490    -0.815561    -15.974564    40.107525    -16.576027    8.435272    -28.033060    43.329758    0.000000    0.000000    0.000000    -18.306684    -14.326472    -14.344904    13.468446    31.148655    -15.545231    12.711734    5.220975    -19.637594    0.000000    0.000000    0.000000    
